<svg xmlns="http://www.w3.org/2000/svg" xmlns:xlink="http://www.w3.org/1999/xlink" width="540" height="540" viewBox="0 0 540 540">
  <defs>
    <clipPath id="clip-lost-pets">
      <rect width="540" height="540"/>
    </clipPath>
  </defs>
  <g id="lost-pets" clip-path="url(#clip-lost-pets)">
    <g id="Group_10475" data-name="Group 10475" transform="translate(36.758 36.758)">
      <g id="Component_1_1" data-name="Component 1 – 1" transform="translate(103 103)">
        <g id="lupa" transform="translate(0 0)">
          <path id="Path_78" data-name="Path 78" d="M283.351,262.05l-21.3,21.3a5.285,5.285,0,0,1-7.474,0l-13.528-13.528,28.775-28.775,13.528,13.528a5.286,5.286,0,0,1,0,7.475Z" transform="translate(-118.412 -118.413)" fill="#0b9796" stroke="#eff6ff" stroke-width="2"/>
          <path id="Path_79" data-name="Path 79" d="M0,0H24.417V24.417H0Z" transform="translate(145.655 162.92) rotate(-45)" fill="#23bebd" stroke="#eff6ff" stroke-width="2"/>
          <path id="Path_80" data-name="Path 80" d="M412.8,391.5l-21.3,21.3a5.285,5.285,0,0,1-7.474,0l-69.261-69.26a5.285,5.285,0,0,1,0-7.474l21.3-21.3a5.285,5.285,0,0,1,7.474,0l69.26,69.261a5.284,5.284,0,0,1,0,7.474Z" transform="translate(-153.866 -153.866)" fill="#23bebd" stroke="#eff6ff" stroke-width="2"/>
          <circle id="Ellipse_3146" data-name="Ellipse 3146" cx="81.389" cy="81.389" r="81.389" fill="#23bebd" stroke="#eff6ff" stroke-width="2"/>
          <circle id="Ellipse_3147" data-name="Ellipse 3147" cx="59.685" cy="59.685" r="59.685" transform="translate(21.704 21.704)" fill="#e4f6ff" stroke="#eff6ff" stroke-width="2"/>
          <path id="Path_83" data-name="Path 83" d="M150.084,66.467a59.685,59.685,0,0,1-83.616,83.616,59.685,59.685,0,1,0,83.616-83.616Z" transform="translate(-32.652 -32.651)" fill="#d3effb"/>
        </g>
        <g id="dog_icon_125586" transform="translate(42.227 53.421)">
          <path id="Layer_6" d="M314.581,451.693a10.519,10.519,0,0,0-.947,5.444S298.7,453.093,298.7,442.2C298.7,442.206,306.046,453.249,314.581,451.693Zm34.6-38.25c-1.235-1.873-2.6-1.667-2.6-1.667s-5.042,5.452-3.189,5.249a2.886,2.886,0,0,1,.926.1c2.366.576,6.716,3.179,6.585,2.058a13.253,13.253,0,0,0-1.718-5.741Zm-5.9,7.177c-.237,2.13-.628,4.584-.977,6.614,0,0,2.763,4.45,11.854,4.183a5.087,5.087,0,0,1,1.574-4.774,46.2,46.2,0,0,1,7.2-1.2c2.776-.1,1.955-3.8,1.955-3.8s2.881-2.984,1.44-4.836h-7.923S357.177,412.7,351.93,413a13.244,13.244,0,0,0-2.747.432,13.245,13.245,0,0,1,1.718,5.741c.129,1.119-4.219-1.482-6.585-2.058a9.642,9.642,0,0,0-1.029,3.5Zm8.54,39.613-.926-8.859a34.639,34.639,0,0,1-3.1,2.691c-.417,3.287-.865,6.683-.865,6.683a28.039,28.039,0,0,1,2.595,3.514l6.508-.484a3.944,3.944,0,0,0-4.216-3.544Zm-9.259,6.07c4.731,4.219,7.82,0,7.82,0a5.705,5.705,0,0,0-.849-2.042,28.625,28.625,0,0,0-2.595-3.513s.453-3.4.865-6.683a34.61,34.61,0,0,0,3.1-2.691,26.1,26.1,0,0,0,3.7-4.517c4.892-7.66.334-11.539-.443-15.434-9.091.263-11.854-4.182-11.854-4.182-.412,2.387-.772,4.182-.772,4.182s-3.7,3.39-7.511,6.585-15.948,5.252-19.446,13.69a10.52,10.52,0,0,0-.947,5.444,6.1,6.1,0,0,0,4.136,4.9s-1.132,1.538,0,4.316l17.08-.046s1.749-3.493-2.572-4.27a53.014,53.014,0,0,0,8.782-3.689l1.5,7.953Z" transform="translate(-298.699 -411.767)" fill="#23bebd"/>
          <g id="STROKES" transform="translate(0.001 0)">
            <g id="XMLID_1_">
              <path id="Path_84" data-name="Path 84" d="M623.216,436.028a13.244,13.244,0,0,1,2.747-.432c5.247-.309,6.482,3.807,6.482,3.807h7.922c1.44,1.852-1.44,4.836-1.44,4.836s.823,3.694-1.955,3.8a46.222,46.222,0,0,0-7.2,1.2,5.091,5.091,0,0,0-1.574,4.774c.782,3.9,5.335,7.778.443,15.434a26.1,26.1,0,0,1-3.7,4.517,34.615,34.615,0,0,1-3.1,2.688c-.417,3.288-.865,6.683-.865,6.683a28.032,28.032,0,0,1,2.595,3.513,5.7,5.7,0,0,1,.849,2.042s-3.087,4.219-7.82,0l-1.507-7.953a53.016,53.016,0,0,1-8.782,3.689c4.321.772,2.572,4.27,2.572,4.27l-17.08.046c-1.132-2.778,0-4.316,0-4.316a6.1,6.1,0,0,1-4.136-4.9,10.464,10.464,0,0,1,.947-5.444c3.5-8.437,15.639-10.495,19.446-13.69s7.508-6.582,7.508-6.582.36-1.8.772-4.183c.35-2.032.741-4.486.977-6.614a9.611,9.611,0,0,1,1.029-3.5" transform="translate(-572.733 -434.351)" fill="none"/>
              <path id="Path_85" data-name="Path 85" d="M1160.789,417.029a2.9,2.9,0,0,0-.926-.1c-1.852.2,3.19-5.247,3.19-5.247s1.368-.2,2.6,1.667a13.25,13.25,0,0,1,1.718,5.741C1167.5,420.208,1163.156,417.61,1160.789,417.029Z" transform="translate(-1115.173 -411.673)" fill="none"/>
              <path id="Path_86" data-name="Path 86" d="M1105.406,1116.676l-.906-10.875" transform="translate(-1063.046 -1070.092)" fill="none"/>
              <path id="Path_87" data-name="Path 87" d="M1253.3,1058.228c.226-1.8.443-3.57.571-4.738a19.5,19.5,0,0,1,.978-4.789" transform="translate(-1204.19 -1015.93)" fill="none"/>
              <path id="Path_88" data-name="Path 88" d="M1288.364,1181.6l.926,8.859a3.95,3.95,0,0,1,4.219,3.545l-6.508.484" transform="translate(-1236.157 -1141.993)" fill="none"/>
              <path id="Path_89" data-name="Path 89" d="M812.448,1208.3l-7.048-.875s7.1-.453,6.379-8.921" transform="translate(-779.333 -1158.023)" fill="none"/>
              <path id="Path_90" data-name="Path 90" d="M313.635,1018.335S298.7,1014.291,298.7,1003.4c0,0,7.341,11.04,15.881,9.491" transform="translate(-298.7 -972.96)" fill="none"/>
              <path id="Path_91" data-name="Path 91" d="M1146.4,712.5s2.763,4.45,11.854,4.182" transform="translate(-1102.79 -697.026)" fill="none"/>
            </g>
          </g>
        </g>
      </g>
    </g>
  </g>
</svg>
