<svg xmlns="http://www.w3.org/2000/svg" xmlns:xlink="http://www.w3.org/1999/xlink" width="1000" height="1000" viewBox="0 0 1000 1000"><defs><clipPath id="b"><rect width="1000" height="1000"/></clipPath></defs><g id="a" clip-path="url(#b)"><rect width="1000" height="1000" fill="#22bcbc"/><g transform="translate(268.936 268.935)"><g transform="translate(103 103)"><g transform="translate(0 0)"><path d="M282.644,261.7,261.7,282.646a5.2,5.2,0,0,1-7.349,0l-13.3-13.3L269.34,241.05l13.3,13.3a5.2,5.2,0,0,1,0,7.35Z" transform="translate(-120.462 -120.464)" fill="#0b9796" stroke="#eff6ff" stroke-width="2"/><path d="M0,0H24.009V24.009H0Z" transform="translate(143.219 160.195) rotate(-45)" fill="#23bebd" stroke="#eff6ff" stroke-width="2"/><path d="M411.138,390.194l-20.945,20.945a5.2,5.2,0,0,1-7.349,0l-68.1-68.1a5.2,5.2,0,0,1,0-7.349l20.945-20.945a5.2,5.2,0,0,1,7.349,0l68.1,68.1a5.2,5.2,0,0,1,0,7.349Z" transform="translate(-156.531 -156.531)" fill="#23bebd" stroke="#eff6ff" stroke-width="2"/><circle cx="80.028" cy="80.028" r="80.028" fill="#23bebd" stroke="#eff6ff" stroke-width="2"/><circle cx="58.687" cy="58.687" r="58.687" transform="translate(21.341 21.341)" fill="#e4f6ff" stroke="#eff6ff" stroke-width="2"/><path d="M148.686,66.467a58.687,58.687,0,0,1-82.218,82.218,58.687,58.687,0,1,0,82.218-82.218Z" transform="translate(-33.217 -33.217)" fill="#d3effb"/></g><g transform="translate(41.52 52.528)"><path d="M314.315,451.025a10.343,10.343,0,0,0-.931,5.353S298.7,452.4,298.7,441.693C298.7,441.7,305.923,452.555,314.315,451.025Zm34.023-37.61c-1.214-1.841-2.56-1.639-2.56-1.639s-4.957,5.361-3.136,5.161a2.837,2.837,0,0,1,.91.1c2.327.567,6.6,3.126,6.475,2.023a13.031,13.031,0,0,0-1.689-5.645Zm-5.8,7.057c-.233,2.094-.617,4.507-.961,6.5,0,0,2.716,4.376,11.656,4.113a5,5,0,0,1,1.548-4.694,45.429,45.429,0,0,1,7.082-1.179c2.73-.1,1.922-3.733,1.922-3.733s2.833-2.934,1.416-4.755h-7.791s-1.214-4.047-6.374-3.743a13.023,13.023,0,0,0-2.7.425,13.024,13.024,0,0,1,1.689,5.645c.127,1.1-4.148-1.457-6.475-2.024a9.48,9.48,0,0,0-1.012,3.44Zm8.4,38.95-.91-8.711a34.053,34.053,0,0,1-3.045,2.646c-.41,3.232-.85,6.571-.85,6.571a27.575,27.575,0,0,1,2.551,3.455l6.4-.476a3.878,3.878,0,0,0-4.145-3.485Zm-9.1,5.969c4.652,4.148,7.689,0,7.689,0a5.61,5.61,0,0,0-.834-2.008,28.145,28.145,0,0,0-2.551-3.455s.445-3.339.85-6.571a34.029,34.029,0,0,0,3.045-2.646,25.659,25.659,0,0,0,3.642-4.441c4.81-7.532.329-11.346-.435-15.176-8.939.258-11.656-4.113-11.656-4.113-.4,2.347-.759,4.113-.759,4.113s-3.642,3.334-7.385,6.475-15.681,5.165-19.121,13.461a10.344,10.344,0,0,0-.931,5.353,6,6,0,0,0,4.067,4.815s-1.113,1.512,0,4.244l16.794-.046s1.72-3.435-2.529-4.2a52.126,52.126,0,0,0,8.635-3.627l1.477,7.82Z" transform="translate(-298.699 -411.767)" fill="#23bebd"/><g transform="translate(0.001 0)"><path d="M622.62,436.02a13.023,13.023,0,0,1,2.7-.425c5.16-.3,6.374,3.743,6.374,3.743h7.79c1.416,1.821-1.416,4.755-1.416,4.755s.809,3.632-1.922,3.733a45.448,45.448,0,0,0-7.082,1.179,5.006,5.006,0,0,0-1.548,4.694c.769,3.834,5.246,7.648.435,15.176a25.656,25.656,0,0,1-3.642,4.441,34.041,34.041,0,0,1-3.044,2.643c-.41,3.233-.851,6.571-.851,6.571a27.561,27.561,0,0,1,2.551,3.455,5.609,5.609,0,0,1,.834,2.008s-3.035,4.148-7.689,0l-1.482-7.82a52.129,52.129,0,0,1-8.635,3.627c4.249.759,2.529,4.2,2.529,4.2l-16.794.046c-1.113-2.731,0-4.244,0-4.244a6,6,0,0,1-4.067-4.816,10.289,10.289,0,0,1,.931-5.353c3.44-8.3,15.378-10.319,19.121-13.461S615.1,453.7,615.1,453.7s.354-1.77.759-4.113c.344-2,.728-4.411.961-6.5a9.45,9.45,0,0,1,1.012-3.44" transform="translate(-572.981 -434.371)" fill="none"/><path d="M1160.767,416.939a2.853,2.853,0,0,0-.911-.1c-1.821.2,3.136-5.16,3.136-5.16s1.346-.2,2.56,1.639a13.029,13.029,0,0,1,1.689,5.645C1167.368,420.065,1163.094,417.511,1160.767,416.939Z" transform="translate(-1115.913 -411.673)" fill="none"/><path d="M1105.391,1116.494l-.891-10.693" transform="translate(-1063.739 -1070.689)" fill="none"/><path d="M1253.3,1058.068c.223-1.77.435-3.511.561-4.659a19.17,19.17,0,0,1,.961-4.709" transform="translate(-1205.012 -1016.477)" fill="none"/><path d="M1288.341,1181.6l.91,8.711a3.884,3.884,0,0,1,4.148,3.485l-6.4.476" transform="translate(-1237.007 -1142.655)" fill="none"/><path d="M812.33,1208.131l-6.93-.86s6.98-.445,6.273-8.771" transform="translate(-779.769 -1158.7)" fill="none"/><path d="M313.385,1018.085S298.7,1014.109,298.7,1003.4c0,0,7.219,10.855,15.615,9.333" transform="translate(-298.7 -973.469)" fill="none"/><path d="M1146.4,712.5s2.716,4.376,11.656,4.113" transform="translate(-1103.52 -697.284)" fill="none"/></g></g></g></g></g></svg>