<svg xmlns="http://www.w3.org/2000/svg" xmlns:xlink="http://www.w3.org/1999/xlink" width="540" height="540" viewBox="0 0 540 540">
  <defs>
    <linearGradient id="linear-gradient" x1="0.5" y1="1.074" x2="0.5" y2="-0.193" gradientUnits="objectBoundingBox">
      <stop offset="0" stop-color="#bfdbdb"/>
      <stop offset="1" stop-color="#f3dbdb"/>
    </linearGradient>
    <clipPath id="clip-reader">
      <rect width="540" height="540"/>
    </clipPath>
  </defs>
  <g id="reader" clip-path="url(#clip-reader)">
    <g id="pay-per-visualization" transform="translate(147.051 118.814)">
      <path id="Path_791" data-name="Path 791" d="M120.734,311.875c-42.941,0-77.412-16.949-114.382-50.378a19.326,19.326,0,0,1,0-28.647c36.97-33.429,71.441-50.378,114.382-50.378s77.412,16.949,114.382,50.378a19.326,19.326,0,0,1,0,28.647C198.145,294.926,163.674,311.875,120.734,311.875Z" transform="translate(0 -64.853)" fill="url(#linear-gradient)"/>
      <path id="Path_792" data-name="Path 792" d="M120.734,311.875c-42.941,0-77.412-16.949-114.382-50.378a19.326,19.326,0,0,1,0-28.647c36.97-33.429,71.441-50.378,114.382-50.378s77.412,16.949,114.382,50.378a19.326,19.326,0,0,1,0,28.647C198.145,294.926,163.674,311.875,120.734,311.875Z" transform="translate(0 -64.853)" fill="url(#linear-gradient)"/>
      <path id="Path_793" data-name="Path 793" d="M390.836,240.078c-23.295-21.063-45.6-35.578-69.653-43.438l5.438,11.533-21.386,21.386,28.079,28.079a30.8,30.8,0,0,0,43.578,0l15.72-15.72A19.6,19.6,0,0,0,390.836,240.078Z" transform="translate(-155.721 -72.082)" fill="#b6c6d9"/>
      <path id="Path_804" data-name="Path 804" d="M64.7,0A64.7,64.7,0,1,1,0,64.7,64.7,64.7,0,0,1,64.7,0Z" transform="translate(56.032 117.618)" fill="#188648"/>
      <path id="Path_794" data-name="Path 794" d="M273.476,210.873a7.347,7.347,0,0,0,0,10.391L316.013,263.8a30.849,30.849,0,0,0,7.268,5.4,64.934,64.934,0,0,0-.294-19.2l-39.12-39.12a7.348,7.348,0,0,0-10.391,0Z" transform="translate(-138.42 -78.245)" fill="#19622d"/>
      <path id="Path_805" data-name="Path 805" d="M26.8,0A26.8,26.8,0,1,1,0,26.8,26.8,26.8,0,0,1,26.8,0Z" transform="translate(93.932 155.518)" fill="#113c51"/>
      <g id="Group_232" data-name="Group 232" transform="translate(71.907 200.557)">
        <path id="Path_795" data-name="Path 795" d="M199.015,404.6a4.911,4.911,0,0,1-1.23-.157,54.158,54.158,0,0,1-17.86-8.316,4.9,4.9,0,0,1,5.673-7.986,44.389,44.389,0,0,0,14.641,6.818,4.9,4.9,0,0,1-1.224,9.641Z" transform="translate(-162.646 -369.873)" fill="#fdffff"/>
        <path id="Path_796" data-name="Path 796" d="M153.356,364.483a4.9,4.9,0,0,1-4.174-2.327c-.639-1.036-1.25-2.1-1.816-3.177a4.9,4.9,0,0,1,8.663-4.574c.464.88.966,1.758,1.491,2.607a4.9,4.9,0,0,1-4.164,7.47Z" transform="translate(-146.799 -351.793)" fill="#fdffff"/>
      </g>
      <g id="Group_233" data-name="Group 233" transform="translate(121.359 55.35)">
        <path id="Path_797" data-name="Path 797" d="M367.435,162.459l5.207-20.31-5.207-20.31L323.356,77.759l-20.31-5.208-20.31,5.208-12.571,12.57-5.207,20.31,5.207,20.31,44.08,44.079,20.31,5.208,20.31-5.208Z" transform="translate(-256.531 -64.125)" fill="#4c986d"/>
        <path id="Path_798" data-name="Path 798" d="M341.871,68.983l-8.913-8.912a16.12,16.12,0,0,0-22.8,0l-8.913,8.912Z" transform="translate(-275.047 -55.35)" fill="#1a632d" stroke="#b1b1b1" stroke-width="0.5"/>
        <path id="Path_799" data-name="Path 799" d="M474.167,173.171l8.913,8.912a16.119,16.119,0,0,1,0,22.8l-8.913,8.913Z" transform="translate(-363.263 -115.458)" fill="#1a632d" stroke="#b1b1b1" stroke-width="0.5"/>
        <path id="Path_800" data-name="Path 800" d="M261.389,149.466l-8.912-8.913a16.119,16.119,0,0,1,0-22.8l8.912-8.912Z" transform="translate(-247.755 -82.641)" fill="#1a632d" stroke="#b1b1b1" stroke-width="0.5"/>
        <path id="Path_801" data-name="Path 801" d="M365.577,281.761l8.913,8.913a16.119,16.119,0,0,0,22.8,0l8.913-8.913Z" transform="translate(-307.864 -170.857)" fill="#1a632d" stroke="#b1b1b1" stroke-width="0.5"/>
        <path id="Path_802" data-name="Path 802" d="M369.535,177.129c7.476-7.476,5.158-21.916-5.178-32.252S339.581,132.222,332.1,139.7s-5.158,21.916,5.178,32.252,24.776,12.654,32.252,5.178Z" transform="translate(-288.551 -96.145)" fill="#1a632c"/>
      </g>
    </g>
  </g>
</svg>
