<svg xmlns="http://www.w3.org/2000/svg" xmlns:xlink="http://www.w3.org/1999/xlink" width="1000" height="1000" viewBox="0 0 1000 1000">
  <defs>
    <clipPath id="clip-sorteos">
      <rect width="1000" height="1000"/>
    </clipPath>
  </defs>
  <g id="sorteos" clip-path="url(#clip-sorteos)">
    <rect width="1000" height="1000" fill="#dd2a7b"/>
    <g id="Logo" transform="translate(408.811 404.379)">
      <g id="XMLID_504_" transform="translate(0 0)">
        <path id="XMLID_142_" d="M673.325,715.9H533.231a2.067,2.067,0,0,1-1.666-3.289l12.9-17.854a2.027,2.027,0,0,1,1.666-.854H660.383a1.971,1.971,0,0,1,1.666.854l12.9,17.854A2.051,2.051,0,0,1,673.325,715.9Z" transform="translate(-512.089 -449.524)" fill="#d1d3d4"/>
        <path id="XMLID_246_" d="M689.184,315.1H625.8V63.647a4.185,4.185,0,0,1,4.357-3.947h54.671a4.185,4.185,0,0,1,4.357,3.947Z" transform="translate(-566.303 -59.7)" fill="#bcbec0"/>
        <path id="XMLID_508_" d="M625.8,324.365h63.341V71.4Z" transform="translate(-566.303 -68.969)" fill="#a7a9ac"/>
        <path id="XMLID_501_" d="M657.492,625.838A91.621,91.621,0,0,1,625.8,620.2v5.254a90.626,90.626,0,0,0,31.692,5.638,91.615,91.615,0,0,0,31.692-5.638V620.2A90.629,90.629,0,0,1,657.492,625.838Z" transform="translate(-566.303 -404.302)" fill="#9c9c9d"/>
        <circle id="XMLID_1_" cx="91.189" cy="91.189" r="91.189" transform="translate(0 39.157)" fill="#ddc69c"/>
        <path id="XMLID_4_" d="M85.936,0a86.117,86.117,0,0,1,79.412,53.034A85.95,85.95,0,1,1,85.936,0Z" transform="translate(5.254 44.411)" fill="#fffbf6"/>
        <path id="XMLID_16_" d="M601.4,235.1a81.561,81.561,0,0,0-36.6,21.142l57.746,57.789Z" transform="translate(-531.357 -183.684)" fill="#7d93ff"/>
        <path id="XMLID_17_" d="M536.342,284.6A81.559,81.559,0,0,0,515.2,321.2l78.931,21.185Z" transform="translate(-502.942 -212.042)" fill="#f9c276"/>
        <path id="XMLID_18_" d="M692.784,231.376a81.892,81.892,0,0,0-42.284,0l21.142,78.931Z" transform="translate(-580.453 -179.961)" fill="#405de6"/>
        <path id="XMLID_19_" d="M778.931,321.3a81.56,81.56,0,0,0-21.142-36.6L700,342.446Z" transform="translate(-608.81 -212.1)" fill="#833ab4"/>
        <path id="XMLID_20_" d="M778.931,412.684a81.89,81.89,0,0,0,0-42.284L700,391.542Z" transform="translate(-608.81 -261.196)" fill="#692791"/>
        <path id="XMLID_21_" d="M757.788,256.242a81.56,81.56,0,0,0-36.6-21.142L700,314.031Z" transform="translate(-608.81 -183.684)" fill="#5851db"/>
        <path id="XMLID_22_" d="M511.476,370.4a81.89,81.89,0,0,0,0,42.284l78.931-21.142Z" transform="translate(-499.218 -261.196)" fill="#fcaf45"/>
        <path id="XMLID_23_" d="M700,419.9l57.789,57.789a81.561,81.561,0,0,0,21.142-36.6Z" transform="translate(-608.81 -289.553)" fill="#c13584"/>
        <path id="XMLID_24_" d="M650.5,498.831a81.89,81.89,0,0,0,42.284,0L671.642,419.9Z" transform="translate(-580.453 -289.553)" fill="#ff2c2c"/>
        <path id="XMLID_25_" d="M721.142,498.831a81.556,81.556,0,0,0,36.6-21.142L700,419.9Z" transform="translate(-608.81 -289.553)" fill="#e1306c"/>
        <path id="XMLID_26_" d="M515.2,441.042a81.561,81.561,0,0,0,21.142,36.6L594.131,419.9Z" transform="translate(-502.942 -289.553)" fill="#f77737"/>
        <path id="XMLID_27_" d="M564.7,477.689a81.558,81.558,0,0,0,36.6,21.142L622.489,419.9Z" transform="translate(-531.299 -289.553)" fill="#f56040"/>
        <circle id="XMLID_2_" cx="7.176" cy="7.176" r="7.176" transform="translate(84.014 123.171)" fill="#f2dabd"/>
        <circle id="XMLID_3_" cx="4.698" cy="4.698" r="4.698" transform="translate(86.491 125.648)" fill="#ff003d"/>
        <rect id="XMLID_499_" width="144.237" height="6.919" transform="translate(19.092 264.322)" fill="#a7a9ac"/>
        <path id="XMLID_503_" d="M621.446,704.977,618.2,694h3.246Z" transform="translate(-561.949 -446.581)" fill="#c9c9c9"/>
        <g id="triangle" transform="translate(103.192 54.509) rotate(180)">
          <path id="Path_184" data-name="Path 184" d="M.423.256,0,.988l.867,9.26,10.7,10.761h.845a.513.513,0,0,0,.444-.77L1.311.256A.513.513,0,0,0,.423.256Z" transform="translate(11.195 0)" fill="#901c0f"/>
          <path id="Path_185" data-name="Path 185" d="M.514,20.021H22.765L11.195,0,.07,19.251A.513.513,0,0,0,.514,20.021Z" transform="translate(0 0.988)" fill="#ff003d"/>
        </g>
      </g>
    </g>
  </g>
</svg>
